<svg xmlns="http://www.w3.org/2000/svg" width="256" height="256"><path fill="#1976D2" fill-opacity=".216" fill-rule="evenodd" d="M0 128.004v128.004l128.25-.254 128.25-.254.254-127.75L257.008 0H0zm.485.496c0 70.4.119 99.053.265 63.672s.146-92.98 0-128S.485 58.1.485 128.5"/><path fill="#1976D2" fill-opacity=".1" fill-rule="evenodd" d="M0 128.004v128.004l128.25-.254 128.25-.254.254-127.75L257.008 0H0zm.485.496c0 70.4.119 99.053.265 63.672s.146-92.98 0-128S.485 58.1.485 128.5M43.5 21.914c-4.295 1.076-8.668 3.529-11.125 6.241-2.279 2.514-4.4 6.2-4.335 7.529.022.449.753-.534 1.625-2.184q5.554-10.514 17.62-10.625c8.982-.083 15.168 3.738 18.819 11.625 1.019 2.2 1.855 3.325 1.858 2.5s-1.005-3.284-2.24-5.465c-3.966-7-14.493-11.559-22.222-9.621m110 15.537c-15.613 3.613-27.925 10.829-39.306 23.036C101.42 74.187 95 91.012 95 110.787c0 57.622 61.938 92.796 112.049 63.631 7.912-4.605 20.266-16.898 24.874-24.753 8.116-13.832 11.982-31.836 10.096-47.016-3.886-31.27-23.03-54.463-52.519-63.627-8.989-2.793-27.27-3.591-36-1.571M27.478 123c0 47.575.122 67.038.272 43.25.149-23.787.149-62.712 0-86.5-.15-23.787-.272-4.325-.272 43.25m40.967-53.5c-.001 17.05.136 24.166.303 15.812.167-8.353.167-22.303 0-31-.166-8.696-.303-1.862-.303 15.188m83.771-21.54c-17.864 4.824-33.146 17.178-40.964 33.113-9.398 19.154-9.438 38.933-.117 57.927 6.692 13.637 22.791 28.162 34.865 31.455 1.375.375-.875-1.031-5-3.124-14.537-7.377-25.529-21.851-30.158-39.711-3.073-11.855-2.308-26.136 1.991-37.137 3.02-7.729 8.303-15.637 9.599-14.37.345.337.783 16.424.973 35.748.257 26.101.666 35.519 1.589 36.632 3.253 3.919 15.573 4.352 19.955.702 2.592-2.159 2.886-4.032 2.977-18.945.047-7.791.454-12.25 1.117-12.25.574 0 2.711 2.798 4.75 6.218 10.926 18.327 17.504 18.202 28.695-.546 2.193-3.674 4.443-6.527 5-6.34.618.209 1.012 5.787 1.012 14.35 0 15.417.363 16.526 6.218 18.973 6.305 2.635 14.762.812 16.609-3.581.832-1.978 1.13-12.938 1.025-37.682-.081-19.19.055-35.225.303-35.632.918-1.508 8.508 7.948 9.824 12.24.421 1.375 1.103 2.95 1.515 3.5s1.53 4.57 2.486 8.933c3.805 17.368.169 36.634-9.516 50.424-6.778 9.651-10.979 13.402-20.33 18.149-4.326 2.197-7.338 3.994-6.694 3.994s3.912-1.359 7.26-3.021c16.147-8.011 26.755-20.208 33.011-37.957 2.878-8.165 3.505-23.705 1.348-33.401-4.812-21.629-21.041-40.04-41.752-47.367-10.115-3.578-26.985-4.159-37.591-1.294M159 51.594c-11.196 2.029-22.549 7.242-28.25 12.971-2.062 2.073-3.75 4.143-3.75 4.602 0 .458 1.912.892 4.25.965l4.25.131-3.5.619-3.5.618-.262 37.25-.262 37.25H144v-22.5c0-12.375.377-22.5.838-22.5s5.217 7.2 10.569 16c8.811 14.487 9.993 16 12.507 16 3.564 0 4.17-.74 14.538-17.75 4.777-7.838 9.051-14.25 9.498-14.25s.754 10.012.681 22.25l-.131 22.25 8.262.291 8.262.29-.262-37.29L208.5 71.5l-3.5-.68c-2.956-.575-2.762-.637 1.25-.401 2.613.154 4.75-.032 4.75-.414 0-.381-1.912-2.591-4.25-4.911-4.136-4.105-11.599-8.265-20.75-11.568-4.423-1.596-21.937-2.85-27-1.932m-10.782 22.668C155 86.228 168.381 108 168.954 108c.399 0 1.281-1.237 1.961-2.75 1.052-2.342 4.544-8.338 16.304-28 1.069-1.787 1.71-3.25 1.423-3.25s-4.64 6.75-9.675 15-9.714 15-10.399 15-5.623-7.2-10.975-16-9.939-16-10.194-16 .114 1.018.819 2.262M68.36 110c0 5.225.169 7.362.375 4.75s.206-6.888 0-9.5-.375-.475-.375 4.75m-.06 16c0 3.025.187 4.262.416 2.75.229-1.513.229-3.987 0-5.5s-.416-.275-.416 2.75m-.068 9c0 1.925.206 2.713.457 1.75.252-.963.252-2.537 0-3.5-.251-.963-.457-.175-.457 1.75m-.153 5.583c.048 1.165.285 1.402.604.605.289-.722.253-1.585-.079-1.917s-.568.258-.525 1.312M68.37 156c0 5.775.165 8.137.367 5.25s.202-7.613 0-10.5-.367-.525-.367 5.25m1.121 13.5c1.079 3.489 4.711 8.099 8.342 10.59 3.311 2.271 4.582 2.443 22.09 2.981 10.217.315 19.477.911 20.577 1.326l2 .754-2-1.323c-1.391-.919-7.485-1.476-20-1.825-14.174-.396-18.638-.855-21-2.158-3.512-1.937-6.585-5.149-8.942-9.345-.927-1.65-1.407-2.1-1.067-1M150.5 172c1.1.473 2.675.859 3.5.859.945 0 .761-.317-.5-.859-1.1-.473-2.675-.859-3.5-.859-.945 0-.761.317.5.859m33 0c-1.261.542-1.445.859-.5.859.825 0 2.4-.386 3.5-.859 1.261-.542 1.445-.859.5-.859-.825 0-2.4.386-3.5.859m-26.25 1.689c.963.252 2.537.252 3.5 0 .963-.251.175-.457-1.75-.457s-2.713.206-1.75.457m19 0c.963.252 2.537.252 3.5 0 .963-.251.175-.457-1.75-.457s-2.713.206-1.75.457m-8.981 1.004c.973.254 2.323.237 3-.037s-.119-.481-1.769-.461-2.204.244-1.231.498M123.5 185.635c.55.484 2.573 2.227 4.496 3.873l3.497 2.992-2.497-2.842c-1.373-1.563-3.396-3.305-4.496-3.872s-1.55-.635-1-.151m8.586 9.865c.104 1.894 1.77 5.084 1.828 3.5.031-.825-.381-2.175-.914-3s-.945-1.05-.914-.5m2.072 9.5c0 1.375.227 1.938.504 1.25.278-.687.278-1.812 0-2.5-.277-.687-.504-.125-.504 1.25m-87.345 22.683c.721.289 1.584.253 1.916-.079s-.258-.568-1.312-.525c-1.165.048-1.402.285-.604.604"/><path fill="#1976D2" fill-opacity=".205" fill-rule="evenodd" d="M0 128.004v128.004l128.25-.254 128.25-.254.254-127.75L257.008 0H0zm.485.496c0 70.4.119 99.053.265 63.672s.146-92.98 0-128S.485 58.1.485 128.5m40.14-106.031c-4.705 1.677-10.37 6.882-12.244 11.249C27.242 36.372 27 52.097 27 123.5c0 95.464-.379 89.754 6.466 97.331 6.719 7.436 8.191 7.669 48.534 7.669 34.738 0 35.589-.048 39.643-2.216 14.342-7.67 17.729-26.639 6.721-37.648-5.605-5.605-7.415-6.042-27.364-6.615-19.134-.55-20.906-.92-25.845-5.396-5.863-5.313-5.611-2.249-6.155-74.79l-.5-66.665-3.006-4.335c-3.537-5.101-12.002-9.858-17.423-9.791-1.964.024-5.315.665-7.446 1.425m110.162 15.509c-14.713 3.738-29.801 13.212-38.862 24.401-19.328 23.869-22.808 55.833-8.972 82.408 8.011 15.387 19.023 25.991 34.547 33.266 11.639 5.456 21.229 7.3 34.848 6.701 19.969-.877 33.956-7.117 48.755-21.748 7.223-7.142 9.347-10.029 13.249-18.006 6.525-13.343 8.079-20.018 8.028-34.5-.046-13.146-1.548-20.503-6.343-31.079-9.056-19.971-24.372-33.339-46.537-40.616-9.101-2.987-28.573-3.404-38.713-.827m8.749 9.135c-6.193.902-15.971 3.786-15.257 4.5.225.224 2.272-.249 4.55-1.053 14.521-5.123 34.026-3.701 48.341 3.526 3.207 1.618 5.83 2.689 5.83 2.379 0-1.516-15.732-7.763-22.658-8.998-8.755-1.56-12.134-1.618-20.806-.354m-20.786 6.459c-3.877 2.103-3.438 2.829.5.827 3.77-1.918 4.437-2.414 3.167-2.359-.505.022-2.155.711-3.667 1.532m-6.889 4.487-2.361 2.06 2.75-1.675c1.512-.921 2.75-1.847 2.75-2.059 0-.781-.835-.335-3.139 1.674M208.5 61c.995 1.1 2.035 2 2.31 2s-.315-.9-1.31-2-2.035-2-2.31-2 .315.9 1.31 2m-82.576 1.75L123.5 65.5l2.75-2.424c1.513-1.334 2.75-2.571 2.75-2.75 0-.785-.81-.146-3.076 2.424m18.851 38.808c-1.011 1.012.318 4.019 2.334 5.278 1.939 1.211 1.945 1.168.308-2.05-2.041-4.013-1.958-3.911-2.642-3.228m45.378 2.006c-.643 1.41-.753 2.307-.246 1.993s1.15-.004 1.429.687c.278.691.542-.207.585-1.994.095-3.921-.236-4.049-1.768-.686m-56.903 44.152c1.512.229 3.988.229 5.5 0s.275-.416-2.75-.416-4.262.187-2.75.416m65 0c1.512.229 3.988.229 5.5 0s.275-.416-2.75-.416-4.262.187-2.75.416"/><path fill="#1976D2" fill-opacity=".776" fill-rule="evenodd" d="M0 128.004v128.004l128.25-.254 128.25-.254.254-127.75L257.008 0H0zm.485.496c0 70.4.119 99.053.265 63.672s.146-92.98 0-128S.485 58.1.485 128.5M38.227 23.116C33.149 25.63 28.335 31.146 26.985 36c-.596 2.143-.976 36.127-.979 87.624-.006 91.441-.174 88.533 5.548 96.035 1.382 1.813 4.636 4.544 7.23 6.069L43.5 228.5h76.327l4.308-3.028c2.37-1.665 5.67-4.964 7.333-7.331 2.614-3.719 3.069-5.344 3.353-11.972.281-6.564-.018-8.317-2.073-12.169-3.108-5.826-9.332-10.531-15.754-11.908-2.801-.601-11.647-1.092-19.657-1.092-13.231 0-14.93-.205-18.549-2.239-2.357-1.325-5.067-4.081-6.636-6.75L69.5 167.5 69 101c-.362-48.091-.823-67.054-1.668-68.5-5.819-9.965-19.209-14.282-29.105-9.384m117.392 13.432c-15.56 2.919-27.132 9.106-39.192 20.952-9.177 9.015-14.829 18.185-19.109 31-2.388 7.149-2.672 9.489-2.672 22s.284 14.851 2.672 22c3.711 11.112 9.646 21.315 16.966 29.167 15.964 17.126 40.224 26.3 62.216 23.527 32.537-4.101 56.718-25.475 64.627-57.124 1.75-7.003 2.021-10.391 1.6-20-.795-18.17-5.483-31.164-16.175-44.828-16.08-20.552-45.22-31.518-70.933-26.694"/></svg>