<svg xmlns="http://www.w3.org/2000/svg" width="256" height="256"><path fill="#1976D2" fill-opacity=".278" fill-rule="evenodd" d="M0 128.011v126.997l128.25-.254 128.25-.254.254-127 .254-127-128.504.258L0 1.015zM.485 128c0 70.125.119 98.813.265 63.75.146-35.062.146-92.437 0-127.5C.604 29.188.485 57.875.485 128"/><path fill="#1976D2" fill-opacity=".538" fill-rule="evenodd" d="M0 11.567c0 6.779.357 10.33 1 9.933.55-.34 1-1.514 1-2.609 0-4.58 6.778-12.742 12.315-14.83C16.239 3.336 52.299 3 128.164 3c123.79 0 114.401-.545 121.246 7.032 1.901 2.105 3.934 5.546 4.518 7.647 1.467 5.283 1.478 215.318.012 220.598-1.313 4.73-6.085 10.246-11.055 12.782C239.186 252.946 235.982 253 128 253s-111.186-.054-114.885-1.941c-4.674-2.385-9.885-8.16-10.672-11.827-1.609-7.502-2.311-6.165-2.375 4.522L0 255.008l128.091-.254 128.091-.254.159-127L256.5.5 128.25.758 0 1.015zm.374-.067c.002 6.05.167 8.396.366 5.213.199-3.182.197-8.132-.004-11C.535 2.846.372 5.45.374 11.5m84.382 33.25c-.661 1.513-2.743 4.122-4.628 5.799-2.916 2.594-3.442 3.733-3.527 7.644-.121 5.5 1.715 7.916 8.712 11.464 3.835 1.945 4.75 2.888 4.5 4.642-.393 2.765-3.669 3.344-7.554 1.335-3.195-1.652-4.38-1.234-6.179 2.18-1.532 2.909-.282 4.634 4.5 6.212 2.274.751 3.42 1.757 3.42 3.002 0 4.399 6.504 4.504 7.469.12.331-1.504 1.871-3.386 3.566-4.357C98.367 80.883 100 77.513 100 72.546c0-4.243-2.476-7.266-8.604-10.505-7.506-3.968-6.798-8.205.974-5.82 6.758 2.075 9.299-4.249 2.902-7.221-1.776-.825-3.238-2.197-3.25-3.05-.061-4.376-5.487-5.272-7.266-1.2m26.841 11.236c-5.955 1.083-8.57 3.257-6.959 5.783.781 1.223 2.244 1.674 4.984 1.535 32.151-1.623 47.519 1.739 60.154 13.159 10.183 9.204 13.361 18.302 11.214 32.103-1.634 10.501-.862 14.187 4.297 20.52 5.738 7.043 8.713 11.199 8.713 12.171 0 .448-2.011 1.676-4.469 2.73-4.999 2.142-6.581 5.414-4.658 9.634 1.472 3.231 1.564 3.042-1.793 3.713-3.709.742-4.945 4.052-2.515 6.738 1.625 1.796 1.632 2.053.09 3.757-2.013 2.224-2.074 5.815-.155 9.171.786 1.375 1.445 3.683 1.465 5.129.059 4.433-3.926 5.355-16.94 3.918-9.947-1.098-11.213-1.049-13.899.538-4.264 2.518-5.365 5.673-4.57 13.095l.677 6.32h-32.617C96.677 206 82 205.76 82 205.467c0-.294 1.12-2.743 2.488-5.443 6.966-13.748 9.685-29.194 6.268-35.617-1.386-2.607-6.817-9.519-15.835-20.157-2.256-2.661-3.241-2.787-5.342-.686-2.072 2.072-.822 4.427 7.859 14.799 3.619 4.325 6.86 8.978 7.202 10.339 1.215 4.839-.554 13.414-5.066 24.562C77.058 199.48 75 205.359 75 206.329c0 .969 1.105 2.866 2.455 4.216L79.909 213h71.045l1.655-2.527c1.289-1.966 1.545-4.071 1.158-9.489-.337-4.708-.114-7.281.69-7.948.782-.649 4.241-.631 10.116.052 14.029 1.632 21.122-.283 24.088-6.504 1.461-3.062 1.448-3.739-.155-8.567l-1.742-5.243 2.713-2.515c2.055-1.906 2.609-3.216 2.288-5.406-.244-1.665.14-3.359.905-3.994 1.554-1.29 1.786-6.459.33-7.359-1.58-.976-1.164-3.5.577-3.5.867 0 2.892-1.315 4.5-2.923 5.125-5.125 4.301-7.67-7.35-22.707-4.093-5.283-3.991-4.345-2.158-19.735.794-6.676-.712-14.979-3.835-21.135-2.73-5.382-14.058-16.4-20.256-19.702-9.391-5.002-21.687-7.883-35.478-8.314-6.875-.214-14.706.012-17.403.502m-5.605 19.535c-.553 1.456-.751 3.06-.439 3.565.312.505-.472 1.324-1.743 1.82-6.21 2.425-9.833 9.735-7.947 16.032 1.343 4.482 4.089 7.144 10.544 10.222 5.447 2.598 7.245 4.7 6.245 7.304-.681 1.775-3.886 1.777-12.278.005-2.564-.541-3.42-.242-4.75 1.658-2.577 3.678-1.991 5.645 2.336 7.853 2.178 1.111 4.653 2.02 5.5 2.02.926 0 1.546.897 1.555 2.25.025 3.678 1.413 4.925 5.09 4.574 3.031-.289 3.429-.678 3.712-3.624.225-2.344.976-3.551 2.589-4.164 2.871-1.092 7.402-6.422 8.216-9.667 1.827-7.278-2.29-13.734-11.622-18.223-6.15-2.959-7.459-5.524-3.693-7.24 1.945-.886 3.195-.762 6.077.606 3.884 1.843 5.597 1.261 7.667-2.607 1.446-2.702.18-4.615-4.58-6.919-3.317-1.606-4.423-2.744-4.66-4.796-.257-2.225-.873-2.744-3.562-3.003-2.733-.264-3.411.108-4.257 2.334M66.75 82.08c-.963.561-1.75 2.11-1.75 3.444 0 1.68-.917 2.899-2.983 3.967-5.943 3.073-8.02 12.693-3.879 17.958 1.176 1.495 4.664 3.929 7.75 5.408 4.581 2.196 5.612 3.146 5.612 5.167 0 2.052-.546 2.529-3.186 2.785-1.753.169-4.453-.331-6-1.113-1.548-.782-3.386-1.218-4.085-.968-1.761.627-4.231 5.661-3.406 6.942.917 1.423 6.708 4.33 8.627 4.33 1.053 0 1.55.955 1.55 2.981 0 2.35.532 3.114 2.513 3.612 3.108.78 5.487-1.037 5.487-4.19 0-1.609.961-2.849 3.044-3.926 6.138-3.174 8.663-11.275 5.45-17.488-.828-1.601-3.64-4.12-6.25-5.598-8.489-4.808-9.192-5.363-8.635-6.816.887-2.31 3.265-2.654 7.143-1.034 3.522 1.471 3.724 1.438 6.182-1.021 3.092-3.091 2.255-5.111-3.253-7.852C74.392 87.528 73 86.123 73 84.953c0-1.036-.87-2.348-1.934-2.918-2.302-1.232-2.12-1.234-4.316.045M.378 244c0 6.325.163 8.912.361 5.75.198-3.162.198-8.338 0-11.5-.198-3.162-.361-.575-.361 5.75"/><path fill="#1976D2" fill-opacity=".824" fill-rule="evenodd" d="M0 9.706v8.706l3.25-5.378c2.524-4.175 4.591-6.118 9.25-8.693l6-3.317-9.25-.012L0 1zm243.308-5.502c6.197 3.362 8.927 6.42 11.159 12.503 1.359 3.702 1.394 3.558 1.463-5.957L256 1l-9.25.027-9.25.026zM85.709 43.624c-.39.39-.726 1.647-.748 2.793-.022 1.234-1.347 2.905-3.25 4.099-2.219 1.393-3.505 3.2-4.161 5.848-1.299 5.237.59 8.306 7.476 12.146 6.032 3.363 7.579 6.561 4.08 8.433-1.491.798-3.058.719-6.023-.302-3.59-1.237-4.168-1.204-5.546.318-.845.934-1.537 2.214-1.537 2.844C76 81.112 81.127 84 83.45 84c.992 0 1.55.912 1.55 2.531 0 1.393.681 2.793 1.513 3.112 1.95.748 4.487-1.361 4.487-3.73 0-1.014 1.013-2.361 2.25-2.995 3.747-1.919 5.704-5.156 5.728-9.477.028-5.115-1.329-6.949-8.071-10.908-3.578-2.1-5.407-3.827-5.407-5.104 0-1.691.68-1.91 5.499-1.773 5.351.152 6.952-.632 6.986-3.422.008-.697-1.538-2.007-3.437-2.912-2.038-.972-3.574-2.502-3.75-3.734-.295-2.07-3.678-3.375-5.089-1.964m25.904 13.363c-5.561 1.009-7.153 2.162-6.247 4.525.545 1.42 1.562 1.536 7.383.836 16.698-2.006 35.112.445 47.049 6.264 7.522 3.666 16.565 12.387 19.889 19.18 2.429 4.965 2.73 6.617 2.489 13.678-.77 22.588-.97 20.627 2.606 25.53a298.853 298.853 0 0 0 6.79 8.88c1.929 2.409 3.345 4.884 3.146 5.5-.199.616-2.13 1.961-4.29 2.988s-4.278 2.377-4.707 3c-.813 1.183-.48 5.034.664 7.672.488 1.125-.281 1.882-2.859 2.814-4.13 1.494-4.671 4.231-1.303 6.589l2.222 1.557-2.222 1.557c-2.574 1.802-2.871 5.686-.723 9.443.786 1.375 1.445 3.722 1.465 5.215.057 4.424-2.691 5.158-16.667 4.45-13.599-.689-16.497-.02-18.243 4.215-.595 1.441-.963 5.545-.818 9.12l.263 6.5-31.991.264c-17.596.146-32.523.061-33.172-.188-.801-.308.224-3.921 3.196-11.264 6.813-16.831 7.583-25.875 2.827-33.185C85.648 157.96 72.865 143 72.015 143c-.424 0-1.329.674-2.013 1.498-1.369 1.649-.006 3.828 9.07 14.502 2.572 3.025 5.183 6.483 5.802 7.684 2.629 5.099.633 15.568-5.717 29.984-3.751 8.517-3.964 11.653-.934 13.775 1.909 1.338 7.186 1.557 37.464 1.557 40.957 0 37.933.915 37.065-11.221-.547-7.65.79-10.357 4.642-9.401 1.158.288 6.184.829 11.169 1.202 7.829.586 9.678.407 13.573-1.316 6.335-2.802 7.679-6.263 5.333-13.724l-1.742-5.537 2.637-2.074c1.916-1.508 2.636-2.994 2.636-5.443 0-1.852.493-3.673 1.096-4.045 1.105-.683.817-5.551-.507-8.578-.539-1.233.225-2.098 3.092-3.5 4.183-2.046 5.99-5.554 4.965-9.637-.353-1.405-3.055-5.499-6.005-9.098-7.572-9.238-8.233-11.19-6.643-19.616 2.776-14.711-.746-26.088-11.262-36.378-11.805-11.553-25.335-16.521-46.736-17.16-6.875-.205-14.699.025-17.387.513m-5.006 18.595c-.334.87-.607 2.42-.607 3.445 0 1.04-1.199 2.441-2.713 3.168-1.492.718-3.742 2.834-5 4.703-4.747 7.053-1.912 14.244 7.489 18.989 6.595 3.329 8.543 5.216 8.047 7.794-.592 3.073-5.332 3.983-10.642 2.044-4.582-1.673-4.718-1.665-6.431.394-3.457 4.154-1.667 6.366 7.5 9.265 1.029.325 1.75 1.545 1.75 2.962 0 3.064 2.309 5.008 4.952 4.169 1.448-.459 2.048-1.505 2.048-3.57 0-2.316.822-3.439 3.972-5.427 4.771-3.012 7.028-7.011 7.028-12.453 0-5.156-3.343-9.046-11.498-13.381-6.691-3.556-7.819-5.775-4.158-8.174 2.245-1.471 2.801-1.476 6.183-.063 4.86 2.03 5.139 1.993 7.068-.952 1.972-3.01.781-5.021-4.212-7.108-2.225-.93-3.29-2.172-3.725-4.345-.511-2.555-1.075-3.042-3.526-3.042-1.738 0-3.163.639-3.525 1.582M67.25 82.651c-.687.284-1.25 1.774-1.25 3.311 0 2.173-.679 3.076-3.047 4.058C59.222 91.565 57 95.604 57 100.84c0 4.946 1.859 7.18 9.5 11.412 6.923 3.835 8.348 6.949 4.071 8.897-2.421 1.104-5.567.607-11.262-1.778-.656-.274-1.881.835-2.724 2.465-1.813 3.505-.986 4.576 5.156 6.682 2.915 1 3.874 1.929 4.269 4.136.399 2.23 1.049 2.846 3 2.846 1.99 0 2.555-.568 2.814-2.827.227-1.983 1.359-3.438 3.786-4.871 4.087-2.411 6.404-6.423 6.355-11.002-.055-5.111-2.216-7.911-9.112-11.809-5.099-2.881-6.353-4.074-6.353-6.041 0-2.026.555-2.504 3.204-2.76 1.762-.17 4.179.212 5.372.85 1.805.967 2.505.823 4.185-.856 2.621-2.622 1.743-4.693-2.928-6.906-2.415-1.144-3.96-2.667-4.336-4.273-.58-2.474-2.341-3.347-4.747-2.354m186.963 156.842c-1.459 5.456-7.793 12.018-13.078 13.548-2.475.716-39.237.958-115.221.756L14.329 253.5l-4.26-2.952c-2.357-1.634-5.552-5.206-7.155-8L.019 237.5l-.01 8.754L0 255.008l128.25-.254 128.25-.254.291-8.266c.356-10.121-.839-13.244-2.578-6.741M.355 246.5c-.003 4.95.166 7.101.376 4.78.209-2.321.212-6.371.005-9-.206-2.629-.378-.73-.381 4.22"/></svg>